<svg width="1160" height="1026" viewBox="0 0 1160 1026" fill="none" xmlns="http://www.w3.org/2000/svg">
<path d="M1322 212.595V816.806C1257 890.865 1207.51 977.016 1173.5 1075.26C1141 1169.73 1125.89 1267.98 1128.16 1370H1078.28V1304.26C1078.28 1278.55 1080.16 1256.63 1083.93 1238.5L1093.02 1189.76L1103.22 1142.15L1136.08 1031.06C1148.94 990.239 1162.54 954.719 1176.9 924.499C1184.45 907.871 1198.06 886.333 1217.7 859.886L1259.65 797.537L1272.13 760.13L1276.66 720.445C1278.17 672.079 1275.52 608.22 1268.72 528.87L1234.71 225.074C1221.86 103.403 1214.31 1.37811 1212.04 -81H1310.67C1309.91 -21.2962 1310.29 27.825 1311.8 66.3636C1313.31 120.022 1316.71 168.765 1322 212.595ZM1322 931.305V1228.3C1317.46 1248.71 1314.06 1272.13 1311.8 1298.58L1308.4 1370H1213.17L1212.04 1245.3C1212.04 1195.43 1214.69 1154.24 1219.98 1121.75C1224.52 1092.27 1238.49 1059.4 1261.91 1023.12L1322 931.305ZM1020.47 1370H967.187L972.846 1248.7L986.456 1127.41C996.284 1060.15 1005.35 1008 1013.66 970.975C1026.51 914.289 1042.76 864.409 1062.42 821.333L1098.69 734.056L1121.36 642.236L1129.29 569.686C1130.05 542.475 1126.65 519.047 1119.09 499.4L1071.47 361.105L1023.88 222.81C1005.73 163.861 992.502 113.981 984.193 73.1687C972.856 18.0017 967.187 -33.3879 967.187 -81H1020.47C1021.22 1.37811 1032.94 83.7514 1055.61 166.12C1078.28 246.234 1110.77 322.567 1153.09 395.117L1123.63 235.274L1096.41 75.4323L1083.93 -1.64481L1077.16 -81H1128.18L1131.57 -15.2552L1139.51 50.5041L1175.78 286.292L1210.93 523.211C1220.74 601.807 1221.5 677.38 1213.19 749.93L1204.12 797.523C1198.83 814.915 1191.27 829.28 1181.46 840.617L1154.25 868.955C1143.67 880.292 1135.73 890.87 1130.44 900.689C1114.57 927.145 1100.6 964.934 1088.51 1014.06L1053.35 1130.82C1039.75 1164.82 1030.68 1204.12 1026.14 1248.71C1022.37 1278.94 1020.48 1319.37 1020.48 1370H1020.47ZM927.531 1370H807.33C786.92 1274.02 778.61 1182.96 782.402 1096.81C786.175 1049.19 794.861 1009.52 808.462 977.78L851.557 868.955C865.148 828.143 873.457 789.982 876.485 754.471C879.503 728.015 877.617 702.317 870.826 677.38C864.016 651.678 852.674 628.249 836.8 607.093C814.135 576.864 786.18 546.258 752.932 515.274L739.322 551.549L726.843 590.087C704.179 655.837 680.373 713.65 655.425 763.526C625.196 823.984 591.194 876.51 553.42 921.104C539.055 943.014 526.581 968.707 515.999 998.181C508.444 1020.86 501.266 1048.82 494.466 1082.06C477.847 1165.2 469.537 1261.17 469.537 1370H375.455L379.982 1192.02C383.754 1127.03 391.686 1067.71 403.778 1014.06C420.416 943.014 443.845 887.842 474.065 848.54L508.076 812.265L542.087 775.99C566.271 747.279 585.163 714.027 598.764 676.233C611.61 640.723 618.792 603.316 620.311 564.013C621.82 514.137 617.66 453.679 607.832 382.638L580.626 203.541C567.78 96.2251 563.253 1.37811 567.045 -81H713.276C707.231 36.8986 716.299 143.837 740.483 239.816C763.912 328.985 805.096 407.581 864.035 475.604L936.585 551.549C966.06 582.533 987.22 610.493 1000.07 635.431C1025.77 683.043 1030.31 742.37 1013.68 813.411C1003.85 857.995 984.957 910.517 957.001 970.975C945.664 995.913 936.972 1024.26 930.926 1056C925.635 1080.19 921.858 1109.66 919.594 1144.41C915.812 1214.7 918.453 1289.9 927.517 1370H927.531ZM713.276 1370H567.03V1216.96C570.048 1159.53 578.358 1109.28 591.958 1066.2C633.525 943.769 682.651 833.43 739.336 735.187L765.411 690.976L796.012 650.173C808.104 695.512 802.813 751.434 780.139 817.938C725.726 981.93 703.429 1165.95 713.248 1370H713.276ZM288.162 1370H131.73L135.126 1286.12L141.931 1202.22L179.337 874.629L214.481 547.022C225.818 430.642 216.749 325.217 187.274 230.747C170.646 260.222 156.286 296.497 144.194 339.572L114.724 452.939C110.188 469.567 107.542 489.973 106.787 514.157L107.919 575.36L99.9823 736.334L73.9078 888.239C59.5526 958.506 50.4887 1009.14 46.7161 1040.13C42.9435 1066.58 41.4345 1097.56 42.189 1133.08L45.5843 1226.03L51.2432 1298.58C53.5165 1325.79 56.9215 1349.6 61.4583 1370H-45.1177V1097.94L-46.2495 1010.65C-86.2971 1074.13 -113.881 1144.8 -129 1222.64V926.778C-72.3143 825.498 -36.4165 715.913 -21.3068 598.024C-9.21511 509.61 -8.83786 396.626 -20.175 259.071L-36.0489 89.0572C-41.3306 22.5434 -44.3535 -34.1424 -45.1177 -81H61.4437L81.8448 83.3693L97.7187 247.739C109.81 224.31 118.502 195.217 123.793 160.461L132.862 69.7734L133.994 -5.05466L131.73 -81H289.309C290.054 -52.2799 293.449 -18.6505 299.495 19.888L316.501 118.512L340.297 279.486C346.352 339.19 347.112 393.225 342.575 441.592C337.284 483.158 327.46 530.011 313.105 582.151L270.025 718.182C250.378 783.177 239.041 853.459 236.014 929.027C235.259 965.302 238.282 1005.74 245.082 1050.33L267.761 1169.36L277.962 1134.21L343.707 863.282C366.381 763.53 383.764 672.466 395.856 590.087C401.902 551.549 404.924 507.719 404.924 458.598L400.383 325.962L384.523 123.054C377.723 40.676 374.7 -27.342 375.455 -81H469.537C468.783 5.90522 478.229 101.13 497.876 204.673L521.672 331.635C530.745 380.757 535.282 423.077 535.282 458.598C535.282 495.627 530.373 531.902 520.555 567.423C511.481 602.934 497.876 636.181 479.738 667.165C435.144 757.852 397.36 856.859 366.386 964.184C339.175 1057.89 316.123 1161.42 297.231 1274.77C290.431 1311.05 287.408 1342.79 288.162 1370ZM-129 815.674V205.805L-117.668 269.286L-107.467 333.899L-73.4557 536.807L-70.0459 559.486L-66.6505 593.483C-59.0957 672.088 -79.8788 746.152 -129 815.674ZM808.491 -81H927.502C923.729 -10.7136 924.489 47.0991 929.78 92.438L942.259 158.183L960.396 223.942L1012.53 422.323L1061.28 620.689L1069.21 659.242L1071.47 697.781L1037.47 604.83C1023.86 570.818 1009.13 540.966 993.261 515.274L933.19 418.928L870.826 323.698C859.489 304.806 850.42 282.509 843.62 256.807C838.328 238.67 833.797 214.864 830.024 185.389C817.932 99.2384 810.75 10.442 808.477 -81" fill="url(#paint0_linear_44_1586)"/>
<defs>
<linearGradient id="paint0_linear_44_1586" x1="596.5" y1="-81" x2="651" y2="569" gradientUnits="userSpaceOnUse">
<stop stop-color="#5482F8"/>
<stop offset="1" stop-color="#5482F8" stop-opacity="0"/>
</linearGradient>
</defs>
</svg>
