<svg width="498" height="431" viewBox="0 0 498 431" fill="none" xmlns="http://www.w3.org/2000/svg">
<path d="M264.43 399.087L266.402 387.25C269.164 370.679 275.476 361.998 299.281 355.422L346.628 343.847C400.024 330.036 458.287 301.627 471.305 223.504C485.77 136.701 443.551 59.1058 305.455 36.0931C155.523 11.1079 76.8759 79.105 60.9642 174.588L58.9917 186.425L174.992 205.756L177.096 193.13C184.986 145.783 211.027 130.658 282.047 142.493C345.966 153.144 358.724 173.924 352.938 208.645C347.415 241.788 325.319 247.839 283.628 259.545L233.257 274.671C181.307 289.533 157.765 309.13 148.955 362.001L146.062 379.362L264.43 399.087ZM244.443 577.427L265.877 448.801L130.938 426.315L109.503 554.941L244.443 577.427Z" fill="#3B71F7"/>
</svg>
